# AST/ASF file generated using VICON BodyLanguage
# -----------------------------------------------
:version 1.10
:name VICON
:units
  mass 1.0
  length 0.45
  angle deg
:documentation
   .ast/.asf automatically generated from VICON data using
   VICON BodyBuilder and BodyLanguage model FoxedUp or BRILLIANT.MOD
:root
   order TX TY TZ RX RY RZ
   axis XYZ
   position 0 0 0  
   orientation 0 0 0 
:bonedata
  begin
     id 1 
     name lhipjoint
     direction 0.541323 -0.757556 0.364798 
     length 2.47576 
     axis 0 0 0  XYZ
  end
  begin
     id 2 
     name lfemur
     direction 0.34202 -0.939693 0  
     length 7.46493  
     axis 0 0 20  XYZ
    dof rx ry rz
    limits (-160.0 20.0)
           (-70.0 70.0)
           (-60.0 70.0)
  end
  begin
     id 3 
     name ltibia
     direction 0.34202 -0.939693 0   
     length 7.73805   
     axis 0 0 20   XYZ
    dof rx
    limits (-10.0 170.0)
  end
  begin
     id 4 
     name lfoot
     direction 0.107174 -0.294458 0.949636   
     length 2.25864   
     axis -90 7.62852e-016 20   XYZ
    dof rx rz
    limits (-45.0 90.0)
           (-70.0 20.0)
  end
  begin
     id 5 
     name ltoes
     direction 1.53606e-011 -4.21934e-011 1   
     length 1.12451   
     axis -90 7.62852e-016 20   XYZ
    dof rx
    limits (-90.0 20.0)
  end
  begin
     id 6 
     name rhipjoint
     direction -0.524745 -0.766967 0.36933   
     length 2.44538  
     axis 0 0 0  XYZ 
  end
  begin
     id 7 
     name rfemur
     direction -0.34202 -0.939693 0   
     length 7.61604   
     axis 0 0 -20   XYZ
    dof rx ry rz
    limits (-160.0 20.0)
           (-70.0 70.0)
           (-70.0 60.0)
  end
  begin
     id 8 
     name rtibia
     direction -0.34202 -0.939693 0   
     length 7.61056   
     axis 0 0 -20   XYZ
    dof rx
    limits (-10.0 170.0)
 end
 begin
     id 9 
     name rfoot
     direction -0.12616 -0.346623 0.929482   
     length 2.46372  
     axis -90 -7.62852e-016 -20   XYZ
    dof rx rz
    limits (-45.0 90.0)
           (-20.0 70.0)
  end
  begin
     id 10 
     name rtoes
     direction -1.53531e-011 -4.22004e-011 1   
     length 1.21611   
     axis -90 -7.62852e-016 -20   XYZ
    dof rx
    limits (-90.0 20.0)
  end
  begin
     id 11 
     name lowerback
     direction -0.000778023 0.997293 -0.0735223   
     length 2.06139   
     axis 0 0 0   XYZ
    dof rx ry rz
    limits (-20.0 45.0)
           (-30.0 30.0)
           (-30.0 30.0)
  end
  begin
     id 12 
     name upperback
     direction 0.0222598 0.999722 -0.0078355   
     length 2.06383   
     axis 0 0 0   XYZ
    dof rx ry rz
    limits (-20.0 45.0)
           (-30.0 30.0)
           (-30.0 30.0)
  end
  begin
     id 13 
     name thorax
     direction 0.0219654 0.999405 0.0265994   
     length 2.07163   
     axis 0 0 0   XYZ
    dof rx ry rz
    limits (-20.0 45.0)
           (-30.0 30.0)
           (-30.0 30.0)
  end
  begin
     id 14 
     name lowerneck
     direction 0.0213282 0.988147 0.15202   
     length 1.75969   
     axis 0 0 0   XYZ
    dof rx ry rz
    limits (-20.0 45.0)
           (-30.0 30.0)
           (-30.0 30.0)
  end
  begin
     id 15 
     name upperneck
     direction -0.0546456 0.982624 -0.177379   
     length 1.79244   
     axis 0 0 0   XYZ
    dof rx ry rz
    limits (-20.0 45.0)
           (-30.0 30.0)
           (-30.0 30.0)
  end
  begin
     id 16
     name head
     direction -0.0199987 0.996855 -0.076686  
     length 1.80555  
     axis 0 0 0   XYZ
    dof rx ry rz
    limits (-20.0 45.0)
           (-30.0 30.0)
           (-30.0 30.0)
  end
  begin
     id 17 
     name lclavicle
     direction 0.929565 0.363219 -0.063096  
     length 3.55722  
     axis 0 0 0   XYZ
    dof ry rz
    limits (-20.0 10.0)
           (0.0 20.0)
  end
  begin
     id 18 
     name lhumerus
     direction 1 -4.48993e-011 -2.36203e-027   
     length 4.92785   
     axis 180 -30 -90   XYZ
    dof rx ry rz
    limits (-60.0 90.0)
           (-90.0 90.0)
           (-90.0 90.0)
  end
  begin
     id 19
     name lradius
     direction 1 -4.48947e-011 2.02997e-027   
     length 3.44052   
     axis 180 -30 -90   XYZ
    dof rx
    limits (-10.0 170.0)
  end
  begin
     id 20
     name lwrist
     direction 1 -4.48962e-011 1.45991e-027   
     length 1.72026   
     axis 1.49639e-024 90 90   XYZ
    dof ry
    limits (-180.0 0.0)
 end
  begin
     id 21 
     name lhand
     direction 1 -4.48984e-011 2.91906e-027   
     length 0.654326   
     axis -1.863e-015 90 90   XYZ
    dof rx rz
    limits (-90.0 90.0)
           (-45.0 45.0)
  end
  begin
     id 22 
     name lfingers
     direction 1 -4.48961e-011 5.83968e-027   
     length 0.527534   
     axis -3.72598e-015 90 90   XYZ
    dof rx
    limits (0.0 90.0)
  end
  begin
     id 23
     name lthumb
     direction 0.707107 -6.34963e-011 0.707107   
     length 0.757437   
     axis -90 45 -6.68868e-015   XYZ
    dof rx rz
    limits (-45.0 45.0)
           (-45.0 45.0)
  end
  begin
     id 24 
     name rclavicle
     direction -0.902944 0.422599 -0.0781198   
     length 3.54432  
     axis 0 0 0   XYZ 
    dof ry rz
    limits (-10.0 20.0)
           (-20.0 0.0)
  end
  begin
     id 25 
     name rhumerus
     direction -1 -4.48953e-011 -4.75835e-028  
     length 5.09181   
     axis 180 30 90   XYZ
    dof rx ry rz
    limits (-90.0 60.0)
           (-90.0 90.0)
           (-90.0 90.0)
  end
  begin
     id 26 
     name rradius
     direction -1 -4.48986e-011 -3.25889e-027   
     length 3.49865   
     axis 180 30 90   XYZ
    dof rx
    limits (-10.0 170.0)
  end
  begin
     id 27 
     name rwrist
     direction -1 -4.48963e-011 1.45989e-027   
     length 1.74933   
     axis 1.49639e-024 -90 -90   XYZ
    dof ry
    limits (-180.0 0.0)
  end
  begin
     id 28
     name rhand
     direction -1 -4.49003e-011 2.91844e-027   
     length 0.66641   
     axis -1.863e-015 -90 -90   XYZ
    dof rx rz
    limits (-90.0 90.0)
           (-45.0 45.0)
  end
  begin
     id 29
     name rfingers
     direction -1 -4.48973e-011 5.83886e-027   
     length 0.537277   
     axis -3.72598e-015 -90 -90   XYZ
    dof rx
    limits (0.0 90.0)
  end
  begin
     id 30
     name rthumb
     direction -0.707107 -6.34976e-011 0.707107   
     length 0.771425   
     axis -90 -45 6.68868e-015   XYZ
    dof rx rz
    limits (-45.0 45.0)
           (-45.0 45.0)
  end
:hierarchy
  begin
    root lhipjoint rhipjoint lowerback
    lhipjoint lfemur
    lfemur ltibia
    ltibia lfoot
    lfoot ltoes
    rhipjoint rfemur
    rfemur rtibia
    rtibia rfoot
    rfoot rtoes
    lowerback upperback
    upperback thorax
    thorax lowerneck lclavicle rclavicle
    lowerneck upperneck
    upperneck head
    lclavicle lhumerus
    lhumerus lradius
    lradius lwrist
    lwrist lhand lthumb
    lhand lfingers
    rclavicle rhumerus
    rhumerus rradius
    rradius rwrist
    rwrist rhand rthumb
    rhand rfingers
  end

#!OML:ASF H:\LiuWeirdWalks\Patient Classification 1\Patient 1\Session 1\male.ASF
:FULLY-SPECIFIED
:DEGREES
1
root 1.03278 17.9618 -32.0663 1.05126 0.842816 -3.23462
lowerback 4.34751 0.448622 0.0757815
upperback -1.33799 0.715772 3.03077
thorax -3.85962 0.392883 3.03635
lowerneck -20.4962 0.449955 6.74902
upperneck 25.4335 0.517364 -7.44689
head 11.7543 -0.0853353 -3.85358
rclavicle 1.72384e-016 1.23246e-014
rhumerus -35.3595 -18.6113 -70.8587
rradius 27.7468
rwrist -5.04916
rhand -16.9421 -3.74554
rfingers 7.12502
rthumb 9.29124 -33.5208
lclavicle 1.72384e-016 1.23246e-014
lhumerus -34.9255 4.4946 86.6833
lradius 29.8899
lwrist 8.36345
lhand -13.189 0.362844
lfingers 7.12502
lthumb 12.911 29.9434
rfemur -6.00639 -1.99962 20.6619
rtibia 26.6052
rfoot -12.2721 -21.9472
rtoes -3.30524
lfemur -6.05994 -5.62475 -18.0492
ltibia 25.6333
lfoot -11.8199 18.0222
ltoes -8.4794
2
root 1.04088 17.9676 -32.0624 1.32111 1.11207 -3.23049
lowerback 4.24293 0.350727 0.34113
upperback -1.5236 0.598727 2.90368
thorax -3.98216 0.328245 2.76443
lowerneck -20.381 0.466452 6.74316
upperneck 25.3387 0.50912 -7.31887
head 11.6943 -0.072095 -3.79978
rclavicle 1.28472e-014 3.29983e-014
rhumerus -35.517 -18.7405 -70.913
rradius 27.6649
rwrist -4.80702
rhand -16.8763 -3.65915
rfingers 7.12502
rthumb 9.35471 -33.4316
lclavicle 1.28472e-014 3.29983e-014
lhumerus -35.0504 4.50725 86.4558
lradius 29.8481
lwrist 8.36699
lhand -13.3548 0.482842
lfingers 7.12502
lthumb 12.7512 30.0735
rfemur -6.31302 -2.20458 20.6368
rtibia 26.6611
rfoot -12.2762 -21.9944
rtoes -3.28043
lfemur -6.8825 -0.960628 -17.4823
ltibia 26.0047
lfoot -12.4321 13.3975
ltoes -9.07702
3
root 1.04935 17.9676 -32.0592 1.60384 1.42267 -3.09371
lowerback 4.12387 0.240333 0.473116
upperback -1.69688 0.45504 2.74551
thorax -4.08509 0.252513 2.53761
lowerneck -20.3154 0.491686 6.80845
upperneck 25.1836 0.507403 -7.27196
head 11.6218 -0.0607939 -3.78669
rclavicle -4.1836e-015 2.78299e-014
rhumerus -35.6179 -18.7999 -71.0148
rradius 27.5804
rwrist -4.74034
rhand -16.9117 -3.60917
rfingers 7.12502
rthumb 9.32055 -33.3831
lclavicle -4.1836e-015 2.78299e-014
lhumerus -35.1511 4.50981 86.243
lradius 29.8057
lwrist 8.43467
lhand -13.5095 0.44101
lfingers 7.12502
lthumb 12.6021 30.0409
rfemur -6.68351 -2.53256 20.4486
rtibia 26.8158
rfoot -12.3398 -21.9863
rtoes -3.31708
lfemur -7.2718 -0.924993 -17.6383
ltibia 26.0569
lfoot -12.5066 13.0362
ltoes -9.33075
4
root 1.04605 17.9681 -32.0545 1.69873 1.326 -2.89275
lowerback 4.16724 0.289156 0.327012
upperback -1.82543 0.510867 2.61669
thorax -4.2453 0.283692 2.48248
lowerneck -20.2856 0.491516 6.87197
upperneck 25.2654 0.491648 -7.27519
head 11.6459 -0.0609499 -3.80378
rclavicle -3.96172e-015 -3.4191e-014
rhumerus -35.8525 -18.8436 -71.0385
rradius 27.5418
rwrist -4.60846
rhand -16.962 -3.67335
rfingers 7.12502
rthumb 9.272 -33.4495
lclavicle -3.96172e-015 -3.4191e-014
lhumerus -35.3005 4.48497 86.0515
lradius 29.7436
lwrist 8.44232
lhand -13.3477 0.240464
lfingers 7.12502
lthumb 12.758 29.8307
rfemur -6.82664 -2.54956 20.2174
rtibia 26.9292
rfoot -12.3992 -21.8878
rtoes -3.28619
lfemur -7.36318 -1.10057 -17.8873
ltibia 26.1504
lfoot -12.4769 13.3441
ltoes -9.22628
5
root 1.04681 17.9689 -32.0496 1.85268 1.3532 -2.8183
lowerback 4.15129 0.28477 0.393183
upperback -1.96761 0.507507 2.50236
thorax -4.38197 0.27966 2.32744
lowerneck -20.2292 0.49955 6.91346
upperneck 25.2667 0.479217 -7.22838
head 11.6343 -0.0556125 -3.79424
rclavicle -1.44119e-015 4.37326e-015
rhumerus -36.0448 -18.9012 -71.0851
rradius 27.4734
rwrist -4.49115
rhand -16.9998 -3.62681
rfingers 7.12502
rthumb 9.23552 -33.4045
lclavicle -1.44119e-015 4.37326e-015
lhumerus -35.4399 4.47522 85.8437
lradius 29.69
lwrist 8.44565
lhand -13.358 0.226487
lfingers 7.12502
lthumb 12.7481 29.8173
rfemur -7.04499 -2.60368 20.1293
rtibia 27.0552
rfoot -12.4553 -21.8733
rtoes -3.2786
lfemur -7.55909 -0.659337 -17.9275
ltibia 26.1767
lfoot -12.5387 12.9015
ltoes -9.30363
6
root 1.04609 17.9693 -32.0439 1.97368 1.3247 -2.79052
lowerback 4.14924 0.301269 0.484165
upperback -2.096 0.534093 2.40606
thorax -4.51339 0.289671 2.17473
lowerneck -20.1825 0.505125 6.95122
upperneck 25.2973 0.464873 -7.18088
head 11.6356 -0.0512653 -3.78531
rclavicle -4.19311e-016 6.36111e-015
rhumerus -36.2478 -18.9517 -71.1261
rradius 27.4056
rwrist -4.38841
rhand -17.0491 -3.57118
rfingers 7.12502
rthumb 9.18793 -33.351
lclavicle -4.19311e-016 6.36111e-015
lhumerus -35.5873 4.45838 85.6409
lradius 29.6449
lwrist 8.44971
lhand -13.3696 0.266756
lfingers 7.12502
lthumb 12.7369 29.8583
rfemur -7.20444 -2.58792 20.1011
rtibia 27.1297
rfoot -12.4833 -21.8745
rtoes -3.27309
lfemur -7.6756 -0.569731 -17.9516
ltibia 26.1822
lfoot -12.5543 12.8417
ltoes -9.33959
7
root 1.04454 17.9696 -32.0373 2.06822 1.26522 -2.80663
lowerback 4.15086 0.331973 0.605261
upperback -2.21115 0.581887 2.32577
thorax -4.63362 0.309142 2.01988
lowerneck -20.1346 0.50712 6.9838
upperneck 25.3405 0.446613 -7.12943
head 11.6412 -0.0485224 -3.77505
rclavicle 6.65618e-015 8.74653e-015
rhumerus -36.4574 -19.0061 -71.1588
rradius 27.3372
rwrist -4.28635
rhand -17.0835 -3.50543
rfingers 7.12502
rthumb 9.15473 -33.2867
lclavicle 6.65618e-015 8.74653e-015
lhumerus -35.7361 4.43529 85.4435
lradius 29.6022
lwrist 8.45785
lhand -13.3785 0.322001
lfingers 7.12502
lthumb 12.7283 29.9141
rfemur -7.32311 -2.52379 20.1278
rtibia 27.1796
rfoot -12.4965 -21.894
rtoes -3.26695
lfemur -7.77414 -0.490035 -17.9262
ltibia 26.2269
lfoot -12.5974 12.8235
ltoes -9.36257
8
root 1.04286 17.9699 -32.0302 2.15323 1.20596 -2.84486
lowerback 4.14816 0.365512 0.747603
upperback -2.31752 0.634826 2.25303
thorax -4.74206 0.330222 1.86043
lowerneck -20.099 0.505792 7.00571
upperneck 25.4012 0.424046 -7.06777
head 11.6555 -0.0474006 -3.76055
rclavicle -1.0958e-014 -1.43125e-014
rhumerus -36.6603 -19.0667 -71.1893
rradius 27.2636
rwrist -4.18753
rhand -17.0976 -3.43317
rfingers 7.12502
rthumb 9.14118 -33.2151
lclavicle -1.0958e-014 -1.43125e-014
lhumerus -35.8795 4.40912 85.2505
lradius 29.5602
lwrist 8.47836
lhand -13.3969 0.378181
lfingers 7.12502
lthumb 12.7106 29.9713
rfemur -7.42348 -2.44956 20.1813
rtibia 27.2141
rfoot -12.5027 -21.9241
rtoes -3.25794
lfemur -7.85769 -0.423291 -17.8765
ltibia 26.2643
lfoot -12.6434 12.8141
ltoes -9.38297
9
root 1.04212 17.9705 -32.0213 2.26251 1.15414 -2.86096
lowerback 4.13814 0.405336 0.890412
upperback -2.42117 0.695175 2.16204
thorax -4.84311 0.354272 1.68112
lowerneck -20.1667 0.491167 7.00193
upperneck 25.5133 0.377115 -6.97615
head 11.708 -0.0566085 -3.73742
rclavicle -1.14922e-015 1.15295e-014
rhumerus -36.8437 -19.164 -71.2296
rradius 27.1886
rwrist -4.08757
rhand -17.0803 -3.36479
rfingers 7.12502
rthumb 9.15782 -33.1459
lclavicle -1.14922e-015 1.15295e-014
lhumerus -35.9926 4.3547 85.0586
lradius 29.5132
lwrist 8.50466
lhand -13.4219 0.386188
lfingers 7.12502
lthumb 12.6864 29.9809
rfemur -7.54076 -2.40265 20.2041
rtibia 27.244
rfoot -12.5079 -21.9358
rtoes -3.2575
lfemur -7.95514 -0.376599 -17.8578
ltibia 26.292
lfoot -12.6872 12.8217
ltoes -9.39919
10
root 1.04128 17.9709 -32.0126 2.35612 1.11355 -2.86034
lowerback 4.13436 0.442114 1.01328
upperback -2.5178 0.750123 2.0699
thorax -4.94012 0.375924 1.51218
lowerneck -20.2201 0.476853 7.00093
upperneck 25.6133 0.332356 -6.89257
head 11.7535 -0.0654448 -3.71681
rclavicle 3.54706e-015 -1.59028e-015
rhumerus -37.0224 -19.2541 -71.2722
rradius 27.1142
rwrist -3.99238
rhand -17.0354 -3.30747
rfingers 7.12502
rthumb 9.20118 -33.0867
lclavicle 3.54706e-015 -1.59028e-015
lhumerus -36.1054 4.30618 84.8686
lradius 29.4615
lwrist 8.52578
lhand -13.4343 0.358338
lfingers 7.12502
lthumb 12.6745 29.9537
rfemur -7.64186 -2.37566 20.2062
rtibia 27.2797
rfoot -12.5168 -21.9405
rtoes -3.26257
lfemur -8.02973 -0.322664 -17.8572
ltibia 26.3049
lfoot -12.7241 12.8144
ltoes -9.41022
11
root 1.04058 17.9714 -32.0045 2.45292 1.09179 -2.83166
lowerback 4.09021 0.481648 1.11196
upperback -2.59296 0.8051 1.96518
thorax -4.99147 0.397935 1.34391
lowerneck -20.2468 0.449828 7.00107
upperneck 25.6623 0.267763 -6.80488
head 11.7723 -0.0827089 -3.69561
rclavicle 6.7711e-016 -1.33186e-014
rhumerus -37.1785 -19.3787 -71.3206
rradius 27.0392
rwrist -3.90424
rhand -16.9971 -3.26218
rfingers 7.12502
rthumb 9.23815 -33.0398
lclavicle 6.7711e-016 -1.33186e-014
lhumerus -36.1783 4.23416 84.6856
lradius 29.3965
lwrist 8.53634
lhand -13.4378 0.315736
lfingers 7.12502
lthumb 12.6711 29.9114
rfemur -7.74916 -2.37412 20.1741
rtibia 27.3239
rfoot -12.542 -21.9366
rtoes -3.25486
lfemur -8.10279 -0.279799 -17.8901
ltibia 26.3001
lfoot -12.7445 12.8036
ltoes -9.42308
12
root 1.03991 17.9718 -31.9968 2.53804 1.08198 -2.77973
lowerback 3.97673 0.526195 1.19056
upperback -2.62916 0.862205 1.84857
thorax -4.96232 0.421477 1.17497
lowerneck -20.1948 0.410561 7.0185
upperneck 25.6212 0.184439 -6.72468
head 11.7391 -0.107756 -3.67864
rclavicle -2.46617e-015 4.77083e-015
rhumerus -37.3058 -19.5499 -71.3733
rradius 26.9609
rwrist -3.80238
rhand -16.9726 -3.22995
rfingers 7.12502
rthumb 9.26177 -33.0065
lclavicle -2.46617e-015 4.77083e-015
lhumerus -36.2024 4.13635 84.5102
lradius 29.3204
lwrist 8.5223
lhand -13.4357 0.256832
lfingers 7.12502
lthumb 12.6732 29.8523
rfemur -7.84586 -2.39068 20.1132
rtibia 27.3755
rfoot -12.5734 -21.9256
rtoes -3.25121
lfemur -8.15868 -0.229943 -17.949
ltibia 26.2822
lfoot -12.7551 12.7776
ltoes -9.44458
